{
	"patcher" : 	{
		"fileversion" : 1,
		"appversion" : 		{
			"major" : 9,
			"minor" : 0,
			"revision" : 10,
			"architecture" : "x64",
			"modernui" : 1
		}
,
		"classnamespace" : "box",
		"rect" : [ 100.0, 100.0, 400.0, 250.0 ],
		"bglocked" : 0,
		"openinpresentation" : 1,
		"default_fontsize" : 12.0,
		"default_fontface" : 0,
		"default_fontname" : "Arial",
		"gridonopen" : 1,
		"gridsize" : [ 15.0, 15.0 ],
		"gridincrement" : [ 5.0, 5.0 ],
		"gridmoreincrement" : [ 10.0, 10.0 ],
		"numinlets" : 0,
		"numoutlets" : 0,
		"boxes" : [ 			{
				"box" : 				{
					"maxclass" : "newobj",
					"text" : "loadbang",
					"patching_rect" : [ 50.0, 50.0, 60.0, 22.0 ],
					"numinlets" : 1,
					"numoutlets" : 1,
					"outlettype" : [ "bang" ],
					"id" : "obj-1"
				}

			}
, 			{
				"box" : 				{
					"maxclass" : "newobj",
					"text" : "metro 125",
					"patching_rect" : [ 50.0, 90.0, 70.0, 22.0 ],
					"numinlets" : 2,
					"numoutlets" : 1,
					"outlettype" : [ "bang" ],
					"id" : "obj-2"
				}

			}
, 			{
				"box" : 				{
					"maxclass" : "newobj",
					"text" : "counter 0 15",
					"patching_rect" : [ 50.0, 130.0, 100.0, 22.0 ],
					"numinlets" : 2,
					"numoutlets" : 1,
					"outlettype" : [ "int" ],
					"id" : "obj-3"
				}

			}
, 			{
				"box" : 				{
					"maxclass" : "newobj",
					"text" : "prepend transport_tick",
					"patching_rect" : [ 50.0, 170.0, 130.0, 22.0 ],
					"numinlets" : 2,
					"numoutlets" : 1,
					"outlettype" : [ "" ],
					"id" : "obj-4"
				}

			}
, 			{
				"box" : 				{
					"maxclass" : "newobj",
					"text" : "s transport_tick",
					"patching_rect" : [ 50.0, 210.0, 95.0, 22.0 ],
					"numinlets" : 1,
					"numoutlets" : 1,
					"outlettype" : [ "" ],
					"id" : "obj-5"
				}

			}
, 			{
				"box" : 				{
					"maxclass" : "comment",
					"text" : "Transport Clock: sends transport_tick 0-15 at 16th note rate. Place on Master, load before Track 2. At 120 BPM use metro 125; adjust for other tempos.",
					"patching_rect" : [ 50.0, 10.0, 350.0, 30.0 ],
					"fontsize" : 11.0,
					"id" : "obj-6"
				}

			}
 ],
		"lines" : [ 			{
				"patchline" : 				{
					"source" : [ "obj-1", 0 ],
					"destination" : [ "obj-2", 0 ]
				}

			}
, 			{
				"patchline" : 				{
					"source" : [ "obj-2", 0 ],
					"destination" : [ "obj-3", 0 ]
				}

			}
, 			{
				"patchline" : 				{
					"source" : [ "obj-3", 0 ],
					"destination" : [ "obj-4", 0 ]
				}

			}
, 			{
				"patchline" : 				{
					"source" : [ "obj-4", 0 ],
					"destination" : [ "obj-5", 0 ]
				}

			}
 ]
	}

}
